<svg xmlns="http://www.w3.org/2000/svg" version="1.1" viewBox="0 0 1688 1132" width="1280" height="1280">
<path transform="translate(735,169)" d="m0 0h165l30 2 27 4 29 6 25 7 32 11 25 11 27 14 18 11 12 8 18 13 16 13 15 13 8 8 6 5 7 8 8 8 9 11 13 16 13 19 11 17 13 23 14 29 12 32 9 31 8 38 2 16 1 19v62l-2 25-4 23-7 31-12 36-10 25-8 17-12 22-15 24-8 11-9 12-8 10-18 20-24 24-8 7-14 12-19 14-17 11-22 13-16 8-23 11-24 9-24 8-32 8-37 6-29 2-29 1h-191l-2-1 2-5 28-56 10-19 26-52 10-19 25-50 10-19 10-21 10-19 18-36 20-38 18-36 10-19 23-46 10-19 17-35 12-23 8-15 9-19 10-19 9-17 23-46 9-17 2-4 5 1 15 9 16 12 14 12 23 23 8 10 1 6-7 12-70 140-10 19-8 16-8 15-37 74-14 27-14 28-10 19-16 32-10 19-20 39-9 17-5 12 6 1h36l27-2 28-5 21-5 27-9 27-12 20-11 17-11 14-10 13-11 8-7 10-9 9-9 9-11 10-12 12-17 12-20 8-15 10-22 12-36 6-29 4-32v-44l-4-31-6-28-8-26-10-24-8-17-14-24-10-14-10-13-12-14-11-12-8-7-10-9-14-11-14-10-20-12-23-12-21-9-28-9-33-7-25-3-130-1-5-3-6-9-26-52-10-19-8-15-3-5v-2z" fill="#ffffff"/>
<path transform="translate(524,169)" d="m0 0h124l15 1 3 3 38 76 14 27 31 62 10 19 15 30 10 19 14 28 10 19 26 52 13 25 8 14 1 8-11 23-10 19-9 19-12 22-8 15-7 15h-2l-18-35-14-27-77-154-15-29-15-30-10-19-31-62-10-19-7-13-1-1-27-1v632h102l1 2-8 16-9 17-9 19-10 19-8 16-9 17-3 1h-99l-13-2-12-5-9-7-6-5-7-10-5-12-1-5v-744l1-13 4-11 6-9 11-11 16-8 7-2z" fill="#ffffff"/>
<path transform="translate(723,430)" d="m0 0 7 6 15 15 8 7 7 7 7 8 12 11 66 66 8 6-2 6-28 56-16 31-8 16h-2l-18-35-14-27-71-142v-3l8-7 15-15 4-5z" fill="#ffffff"/>
<path transform="translate(636,336)" d="m0 0 3 1 9 12 7 8 3 2v2l4 2v2l4 2 12 12v2l4 2 40 40v2l11-9 32-32 1-2 3 1-9 11-24 24-8 7-1 3 18 18 8 7 15 16 34 34v2l4 2 17 17 7 8 18 18 6 4v2l-4-2-8-6-71-71-8-7-12-13-15-14-12-12-5 3-7 8-16 16-1-2 7-8 11-12 7-7-1-4-54-54-8-7-9-10-10-14z" fill="#ffffff"/>
<path transform="translate(1006,381)" d="m0 0 4 2 12 13 28 28 4-2 11-8h2l2-4 1 3-13 12-2 1 1 4 22 22 1 4-4-2-22-22-4 1-7 7-3 2-2-1-2 6-9 10-14 14-8 7-53 53-7 8-26 26 2-5 11-13 21-21 7-8 88-88 2-4-4-2-9-10-27-27z" fill="#ffffff"/>
<path transform="translate(796,173)" d="m0 0 5 2 17 16 33 33v2h2l7 8 22 22 5 4 4-1 7-8 47-47 8-7 13-13 2 1-15 15-14 15-42 42-5 4-1 4 6 5 7 4v1h-68v-1l59-1-6-6-7 1 2-1 1-5-11-9-51-51v-2l-4-2-22-22zm85 95m-1 1v3h-2v-2z" fill="#ffffff"/>
<path transform="translate(1296,510)" d="m0 0h2l-2 4-11 11-3-1 6-5 7-8zm-15 15m-1 1m-1 1 1 3-14 15-6 6h-2l-1 3-31 31-7 6 2 4 9 8v2l4 2 3 3-1 3-10-9-9-9-3 1-5 5 2-6 2-2-1-4-4-4 1-3 7 7 3-1 2-4 34-34h2l2-4 8-7z" fill="#ffffff"/>
<path transform="translate(892,914)" d="m0 0m-1 1m-1 1 1 2v5l4 2 15 14 8 8 7 8 41 41-2 1-8-7-12-11-18-18-7-8-30-30-4 1-13 13-7 8-37 37-2-1 43-43 7-8 9-9v-4z" fill="#ffffff"/>
<path transform="translate(1006,381)" d="m0 0 4 2 12 13 28 28 4-2 11-8h2l2-4 1 3-13 12-2 1 1 4 22 22 1 4-4-2-22-22-4 1-7 7-3 2-2-1-1 3-2-1 13-13 2-4-4-2-9-10-27-27z" fill="#ffffff"/>
<path transform="translate(651,172)" d="m0 0h2l-2 4-8 7-17 17-7 8-47 47-8 7-2-1 9-10 73-73 5-4h2z" fill="#ffffff"/>
<path transform="translate(1115,817)" d="m0 0 7 6 1 3 4 2 7 7 8 7 8 9v2h2l7 8 15 16 7 7v2l-4-2-38-38-7-8-8-7-7-8-2-2z" fill="#ffffff"/>
<path transform="translate(895,599)" d="m0 0 8 6 15 14 16 16 7 8 26 26 2 1v2l-5-2-9-8-7-8-2-1v-2l-4-2-8-8-7-8-29-29-3-2z" fill="#ffffff"/>
<path transform="translate(787,818)" d="m0 0 4 2 7 7 7 8 10 9 4 5 7 6 7 8 7 7v2l-4-2-48-48z" fill="#ffffff"/>
<path transform="translate(558,917)" d="m0 0 4 4-5 4-17 16-52 52v-3l68-68z" fill="#FEFEFE"/>
<path transform="translate(926,957)" d="m0 0 7 6 33 33-2 1-8-7-12-11-18-18-1-3z" fill="#ffffff"/>
<path transform="translate(1252,628)" d="m0 0 4 2 39 39 3 5-1 2-15-16-29-29z" fill="#ffffff"/>
<path transform="translate(1144,333)" d="m0 0 2 4-13 13-11 9-7 8h-2l1-4z" fill="#ffffff"/>
<path transform="translate(1208,582)" d="m0 0 7 6h3l2 6 7 7 3 2v2l4 2 3 3-1 3-10-9-9-9-3 1-5 5 2-6 2-2-1-4-4-4z" fill="#ffffff"/>
<path transform="translate(569,583)" d="m0 0h1v19l-5-3-5-6 1-3z" fill="#ffffff"/>
<path transform="translate(546,250)" d="m0 0h2v2l3 1v2h2v2l3 1v2h2v2h4v2l-3 2-2 4-4 4h-2l-2 4-3-1 7-8 4-2-1-6-4-2-2-4-4-2z" fill="#ffffff"/>
<path transform="translate(886,266)" d="m0 0 4 1 5 5 4 2h-20l2-5z" fill="#ffffff"/>
<path transform="translate(1172,305)" d="m0 0 2 3-16 16h-3l2-5z" fill="#ffffff"/>
<path transform="translate(825,981)" d="m0 0 2 2-14 14-7 6-2-1 16-17z" fill="#ffffff"/>
<path transform="translate(892,914)" d="m0 0m-1 1m-1 1 1 2v5l4 2 3 3v2l-4-2-5-5-4 1-4 4-2-2 6-5v-4z" fill="#ffffff"/>
<path transform="translate(558,593)" d="m0 0 4 1 2 4-5-3zm-1 2m-1 1m-3 1 3 1-5 4 1-4z" fill="#ffffff"/>
<path transform="translate(1006,381)" d="m0 0 4 2 12 13v2l-4-2-9-9z" fill="#ffffff"/>
<path transform="translate(966,184)" d="m0 0 2 1-20 20-2-1z" fill="#ffffff"/>
<path transform="translate(494,526)" d="m0 0 4 2 16 16v2l-3-1-7-8-10-10z" fill="#f9f9f9"/>
<path transform="translate(1296,510)" d="m0 0h2l-2 4-11 11-3-1 6-5 7-8z" fill="#ffffff"/>
<path transform="translate(1252,628)" d="m0 0 4 2 10 10v2l-4-2-9-9z" fill="#ffffff"/>
<path transform="translate(615,975)" d="m0 0 4 2 8 7 1 3-4-2-7-6z" fill="#ffffff"/>
<path transform="translate(558,917)" d="m0 0 4 4-5 4-7 6 1-4 6-7z" fill="#ffffff"/>
<path transform="translate(1266,641)" d="m0 0 7 6 6 7h-3l-11-11z" fill="#ffffff"/>
<path transform="translate(555,267)" d="m0 0h3l-1 3-4 4h-2l-2 4-3-1 7-8z" fill="#ffffff"/>
<path transform="translate(844,876)" d="m0 0 4 2 8 8v2l-4-2-7-7z" fill="#ffffff"/>
<path transform="translate(1208,582)" d="m0 0 7 6h3l-1 5h-2l-7-8z" fill="#ffffff"/>
<path transform="translate(889,265)" d="m0 0 4 2 9 6-3 1-5-2-5-5z" fill="#ffffff"/>
<path transform="translate(830,862)" d="m0 0 4 2 6 6v2l-4-2-6-6z" fill="#ffffff"/>
<path transform="translate(560,264)" d="m0 0 5 4 4 4v2l-5-2-3-4-3-2z" fill="#ffffff"/>
<path transform="translate(1290,665)" d="m0 0 5 4 3 5-1 2-8-9z" fill="#ffffff"/>
<path transform="translate(889,921)" d="m0 0h2v2l4 2 3 3v2l-4-2-5-5z" fill="#ffffff"/>
<path transform="translate(895,599)" d="m0 0 8 6 2 4-4-2-6-5z" fill="#ffffff"/>
</svg>